<svg xmlns="http://www.w3.org/2000/svg" viewBox="0 0 98.44 84.26"><defs><style>.cls-1{fill:#75c04a;}.cls-2{fill:#00bceb;}.cls-3{fill:#13284c;}</style></defs><g id="Layer_2" data-name="Layer 2"><g id="Layer_1-2" data-name="Layer 1"><path class="cls-1" d="M51,41H84.89a174.23,174.23,0,0,0,1.22-23.43,1.74,1.74,0,0,0-1.3-1.69C84.55,15.8,59.82,9.05,51,.92Z"/><path class="cls-2" d="M48.69,41V0a1.63,1.63,0,0,0-.8.42C39.56,8.77,13.79,15.8,13.53,15.87a1.74,1.74,0,0,0-1.3,1.69A174.23,174.23,0,0,0,13.45,41Z"/><path class="cls-2" d="M51,43.27V83.78C73.46,75.07,81.64,61,84.55,43.27Z"/><path class="cls-1" d="M48.69,43.27H13.79c3,18,11.38,32.3,34.77,41l.13,0Z"/><path class="cls-3" d="M9.56,35.75H0V44H10.57C10.12,41.25,9.79,38.51,9.56,35.75Z"/><path class="cls-3" d="M11.37,48.05H0v8.2H13.74A62.3,62.3,0,0,1,11.37,48.05Z"/><path class="cls-3" d="M9,19.34H2.05a2.05,2.05,0,0,0-2,2.05V31.65H9.27C9.05,27.54,9,23.42,9,19.34Z"/><path class="cls-3" d="M15.47,60.36H0v6.15a2.05,2.05,0,0,0,2.05,2H16.41l0-6.36C16.06,61.59,15.76,61,15.47,60.36Z"/><path class="cls-3" d="M96.39,19.34h-6.8c0,4.08-.09,8.2-.31,12.31h9.16V21.39A2.05,2.05,0,0,0,96.39,19.34Z"/><path class="cls-3" d="M88,44H98.44v-8.2H89C88.76,38.51,88.43,41.25,88,44Z"/><path class="cls-3" d="M78.16,68.56H96.39a2.05,2.05,0,0,0,2-2V60.36H83.08A46.41,46.41,0,0,1,78.16,68.56Z"/><path class="cls-3" d="M84.81,56.25H98.44v-8.2H87.18A62.3,62.3,0,0,1,84.81,56.25Z"/></g></g></svg>