<svg xmlns="http://www.w3.org/2000/svg" viewBox="0 0 100 85.77"><defs><style>.cls-1{fill:#74bf4b;}.cls-2{fill:#e3241b;}.cls-3{fill:#0d274d;}</style></defs><g id="Layer_2" data-name="Layer 2"><g id="Layer_1-2" data-name="Layer 1"><path class="cls-1" d="M65.19,65.57a29.56,29.56,0,0,1-15.68,4.5A30.3,30.3,0,1,1,79.8,39.77a29.54,29.54,0,0,1-4.5,15.69l5.21,5.2c5.84-11.94,6.61-26.46,6.61-42.73a1.77,1.77,0,0,0-1.32-1.72C85.53,16.13,59.36,9,50.88.51a1.9,1.9,0,0,0-2.59,0C39.83,9,13.65,16.13,13.39,16.21a1.77,1.77,0,0,0-1.32,1.72C12.07,48.56,14.78,73,49,85.66a1.66,1.66,0,0,0,.62.11,1.94,1.94,0,0,0,.63-.11c9.52-3.53,16.59-8,21.85-13.2Z"/><path class="cls-1" d="M33.51,39.77a16,16,0,1,0,16-16A16,16,0,0,0,33.51,39.77Z"/><path class="cls-2" d="M39.34,41.06a6.26,6.26,0,0,0-5.26,2.87,16,16,0,0,0,7,9.4,6.26,6.26,0,0,0-1.72-12.27Z"/><path class="cls-1" d="M65.19,65.57a29.56,29.56,0,0,1-15.68,4.5A30.3,30.3,0,1,1,79.8,39.77a29.54,29.54,0,0,1-4.5,15.69l5.21,5.2c5.84-11.94,6.61-26.46,6.61-42.73a1.77,1.77,0,0,0-1.32-1.72C85.53,16.13,59.36,9,50.88.51a1.9,1.9,0,0,0-2.59,0C39.83,9,13.65,16.13,13.39,16.21a1.77,1.77,0,0,0-1.32,1.72C12.07,48.56,14.78,73,49,85.66a1.66,1.66,0,0,0,.62.11,1.94,1.94,0,0,0,.63-.11c9.52-3.53,16.59-8,21.85-13.2Z"/><path class="cls-1" d="M49.59,0a1.8,1.8,0,0,1,1.29.51C59.36,9,85.53,16.13,85.8,16.21a1.77,1.77,0,0,1,1.32,1.72c0,16.27-.77,30.79-6.61,42.73l-5.21-5.2a29.54,29.54,0,0,0,4.5-15.69,30.3,30.3,0,1,0-30.29,30.3,29.56,29.56,0,0,0,15.68-4.5l6.88,6.89c-5.26,5.23-12.33,9.67-21.85,13.2a1.94,1.94,0,0,1-.63.11,1.66,1.66,0,0,1-.62-.11C14.78,73,12.07,48.56,12.07,17.93a1.77,1.77,0,0,1,1.32-1.72C13.65,16.13,39.83,9,48.29.51A1.84,1.84,0,0,1,49.59,0"/><path class="cls-3" d="M11.09,48.9H0v8.33H13.5A62.76,62.76,0,0,1,11.09,48.9Z"/><path class="cls-3" d="M9.25,36.4H0v8.33H10.27C9.81,42,9.49,39.21,9.25,36.4Z"/><path class="cls-3" d="M8.64,19.73H2.08A2.09,2.09,0,0,0,0,21.82V32.23H9C8.73,28.07,8.66,23.88,8.64,19.73Z"/><path class="cls-3" d="M15.25,61.4H0v6.25a2.08,2.08,0,0,0,2.08,2.08H16.67l0-5.58C16.15,63.25,15.69,62.34,15.25,61.4Z"/><path class="cls-3" d="M97.92,19.73H90.54c0,4.15-.08,8.34-.31,12.5H100V21.82A2.09,2.09,0,0,0,97.92,19.73Z"/><path class="cls-3" d="M88.9,44.73H100V36.4H89.93C89.69,39.21,89.36,42,88.9,44.73Z"/><path class="cls-3" d="M83.59,62.17l-.34.69,6.3,6.31a5.27,5.27,0,0,1,.51.56h7.86A2.08,2.08,0,0,0,100,67.65V61.4H83.94C83.82,61.66,83.71,61.92,83.59,62.17Z"/><path class="cls-3" d="M85.69,57.23H100V48.9H88.1A64.3,64.3,0,0,1,85.69,57.23Z"/><path class="cls-3" d="M49.51,13.73A25.9,25.9,0,0,1,69.76,55.94L86.27,72.45a2.89,2.89,0,0,1,0,4.09,2.85,2.85,0,0,1-2,.85,2.88,2.88,0,0,1-2-.85L65.67,60a25.81,25.81,0,0,1-16.16,5.78,26,26,0,1,1,0-52.08m0,46.3A20.26,20.26,0,1,0,29.25,39.77,20.28,20.28,0,0,0,49.51,60"/></g></g></svg>